# xmcd CD database file
#
# Track frame offsets:
#	150
#	22125
#	46645
#
# Disc length: 915 seconds
#
# Revision: 1
# Processed by: cddbd v1.5.1PL0 Copyright (c) Steve Scherf et al.
# Submitted via: CDex 1.51
#
DISCID=1b039103
DTITLE=SIAM SHADE - Why not? (Single Mix)
DYEAR=1997
DGENRE=JPop
TTITLE0=Why not? (Single Mix)
TTITLE1=I Believe
TTITLE2=Why not? (Single Mix) 〜Original Karaoke
EXTD=YEAR: 1997
EXTT0=
EXTT1=
EXTT2=
PLAYORDER=
